<svg width="214" height="214" viewBox="0 0 214 214" fill="none" xmlns="http://www.w3.org/2000/svg">
<path d="M33.8573 0C39.5669 0 45.2838 0 50.9934 0C51.7375 0.128778 52.4817 0.329099 53.2329 0.364871C64.7309 0.930063 76.093 2.43963 87.312 5.02949C113.442 11.0534 137.082 22.1426 157.559 39.635C182.122 60.6186 198.078 87.0825 206.829 117.982C213.153 140.296 214.971 163.119 213.54 186.227C213.382 188.767 213.139 191.307 212.91 194.276C170.095 157.567 127.609 121.144 85.1297 84.7215C85.001 84.8575 84.8722 84.9934 84.7434 85.1293C121.162 127.605 157.588 170.073 194.322 212.906C192.089 213.063 190.308 213.163 188.533 213.306C171.726 214.687 154.976 214 138.348 211.303C118.844 208.134 100.262 202.088 82.8759 192.573C61.9978 181.155 44.5611 165.816 30.9166 146.335C12.5641 120.15 3.26982 90.7598 0.758426 59.059C0.543777 56.3689 0.257579 53.6789 0 50.9889V33.8543C0.107324 33.1818 0.257579 32.5093 0.321973 31.8296C1.20203 22.7865 2.03916 13.7363 2.99077 4.70039C3.05517 4.07081 3.90661 3.09067 4.49332 3.01913C10.8255 2.19638 17.1648 1.4881 23.5184 0.822748C26.9527 0.465031 30.4086 0.271864 33.8573 0Z" fill="#7E9674"/>
</svg>
